<?xml version="1.0" standalone="no"?><!DOCTYPE svg PUBLIC "-//W3C//DTD SVG 1.1//EN" "http://www.w3.org/Graphics/SVG/1.1/DTD/svg11.dtd"><svg class="icon" width="200px" height="200.00px" viewBox="0 0 1024 1024" version="1.1" xmlns="http://www.w3.org/2000/svg"><path fill="#333333" d="M938.666667 128l-640 0c-29.44 0-52.693333 14.933333-68.053333 37.546667l-230.613333 346.24 230.613333 346.24c15.36 22.613333 38.613333 37.973333 68.053333 37.973333l640 0c47.146667 0 85.333333-38.186667 85.333333-85.333333l0-597.333333c0-47.146667-38.186667-85.333333-85.333333-85.333333zM810.666667 664.96l-60.373333 60.373333-152.96-152.96-152.96 152.96-60.373333-60.373333 152.96-152.96-152.96-152.96 60.373333-60.373333 152.96 152.96 152.96-152.96 60.373333 60.373333-152.96 152.96 152.96 152.96z" /></svg>