<?xml version="1.0" standalone="no"?><!DOCTYPE svg PUBLIC "-//W3C//DTD SVG 1.1//EN" "http://www.w3.org/Graphics/SVG/1.1/DTD/svg11.dtd"><svg class="icon" width="200px" height="200.00px" viewBox="0 0 1024 1024" version="1.1" xmlns="http://www.w3.org/2000/svg"><path fill="#333333" d="M957.342346 709.928908c0.017396-1.601474 0.035816-3.201925 0.01228-4.840238-0.013303-0.905626-0.025583-1.849114-0.038886-2.809999-0.115634-32.899294-0.36839-111.301945-0.459464-190.277648 0.091074-78.977749 0.343831-157.382447 0.459464-190.279694 0.013303-0.960885 0.025583-1.904373 0.038886-2.809999 0.023536-1.639337 0.005117-3.238764-0.01228-4.839215 0.019443-5.205559 0.030699-8.17724 0.031722-8.469905 0.007163-1.865487-0.25685-3.664459-0.717338-5.383614-2.481518-26.485211-11.434423-46.927799-26.733874-60.907185-20.325931-18.570961-44.171012-18.49012-50.572816-18.088984L297.098024 221.222427c-4.870938 0-9.583263 1.737574-13.287631 4.900613C116.483456 368.963283 73.792145 486.59233 68.087213 504.319064c-0.777713 1.953492-1.252527 4.02978-1.397836 6.16542-0.004093 0.054235-0.007163 0.10847-0.011256 0.163729-0.026606 0.445138-0.041956 0.890276-0.038886 1.339508-0.004093 0.471744 0.011256 0.939395 0.040932 1.407046 0.002047 0.029676 0.00307 0.060375 0.00614 0.090051 0.145309 2.200108 0.636496 4.338818 1.449002 6.344498 5.90857 18.266016 48.846498 135.632073 215.675084 278.045597 3.705392 3.163039 8.416693 4.900613 13.287631 4.900613l582.252017 0c0.843204 0.053212 1.987261 0.101307 3.38919 0.101307 9.231245 0 29.534663-2.064009 47.184649-18.188244 15.299451-13.978363 24.252357-34.419927 26.733874-60.905138 0.460488-1.719154 0.724501-3.518127 0.717338-5.384637C957.373045 718.106148 957.361789 715.13549 957.342346 709.928908zM882.096595 761.934353c-0.814552-0.107447-1.081635-0.091074-1.982144-0.090051L304.684816 761.844302c-84.061534-72.759117-133.167952-137.698129-159.707398-179.732477-21.738094-34.43016-32.201399-59.373249-36.202527-70.112847 4.001127-10.741645 14.464433-35.68371 36.202527-70.112847 26.539446-42.033325 75.645864-106.972337 159.707398-179.732477l575.430658 0c0.715291 0 1.430582-0.037862 2.142803-0.112564 0.109494-0.013303 11.187807-0.615007 20.056801 7.487531 8.890484 8.123005 13.726629 23.260773 14.098089 43.934628-0.008186 2.210341-0.017396 4.845355-0.027629 7.875365-0.48607 36.966936-0.548492 114.100688-0.460488 190.660364-0.088004 76.558653-0.024559 153.692405 0.460488 190.658318 0.011256 3.021823 0.020466 5.650697 0.027629 7.857968-0.364297 20.384259-5.071506 35.408441-13.723559 43.6041C894.207423 762.155387 883.65202 762.012124 882.096595 761.934353zM605.328084 512l93.776803-93.776803c7.992021-7.993045 7.992021-20.951171-0.001023-28.943193-7.993045-7.993045-20.951171-7.993045-28.943193 0l-93.77578 93.776803-93.776803-93.77578c-7.993045-7.993045-20.951171-7.993045-28.943193 0s-7.993045 20.951171 0 28.943193l93.776803 93.776803-93.77578 93.776803c-7.993045 7.993045-7.993045 20.951171 0 28.943193 3.996011 3.996011 9.233292 5.993504 14.471596 5.993504s10.475586-1.998517 14.471596-5.994528l93.77578-93.776803 93.777827 93.776803c3.996011 3.996011 9.233292 5.993504 14.471596 5.993504s10.475586-1.998517 14.47262-5.994528c7.993045-7.993045 7.992021-20.951171 0-28.943193L605.328084 512z" /></svg>