<?xml version="1.0" standalone="no"?><!DOCTYPE svg PUBLIC "-//W3C//DTD SVG 1.1//EN" "http://www.w3.org/Graphics/SVG/1.1/DTD/svg11.dtd"><svg class="icon" width="200px" height="200.00px" viewBox="0 0 1024 1024" version="1.1" xmlns="http://www.w3.org/2000/svg"><path fill="#666666" d="M324.795 987.421L36.52 699.148C12.985 675.624 0.024 644.338 0.024 611.06c0-33.278 12.962-64.565 36.496-88.089L523.001 36.49C553.17 6.32 597.475-6.321 639.08 3.223l234.216 54.058c46.117 10.573 82.768 47.224 93.385 93.352l54.059 234.227c9.71 42.125-2.721 85.522-33.289 116.079L500.97 987.421c-23.513 23.534-54.81 36.485-88.077 36.485-33.288 0-64.564-12.951-88.098-36.485zM555.029 68.519L68.548 555c-14.975 14.974-23.225 34.882-23.225 56.06 0 21.167 8.251 41.075 23.225 56.049l288.274 288.284c29.927 29.938 82.127 29.982 112.12 0l486.481-486.481c19.443-19.442 27.361-47.057 21.168-73.854l-54.058-234.249c-6.746-29.352-30.06-52.653-59.389-59.377l-234.238-54.07a79.767 79.767 0 0 0-17.872-2.035c-21.146-0.001-41.053 8.239-56.005 23.192z m94.094 306.3c-18.712-18.713-29.042-43.596-29.042-70.051 0-26.476 10.307-51.36 29.042-70.083 18.713-18.712 43.596-29.009 70.051-29.009 26.476 0 51.36 10.297 70.072 29.009 38.641 38.631 38.641 101.503 0 140.134-18.713 18.723-43.596 29.031-70.051 29.031-26.477 0-51.36-10.307-70.072-29.031z m32.028-108.106c-10.174 10.175-15.77 23.678-15.77 38.045s5.595 27.87 15.77 38.033c20.349 20.306 55.717 20.327 76.067 0 20.969-20.98 20.969-55.098 0-76.078-10.153-10.152-23.667-15.737-38.045-15.737-14.355 0-27.87 5.585-38.022 15.737z" /></svg>