<?xml version="1.0" standalone="no"?><!DOCTYPE svg PUBLIC "-//W3C//DTD SVG 1.1//EN" "http://www.w3.org/Graphics/SVG/1.1/DTD/svg11.dtd"><svg class="icon" width="200px" height="200.00px" viewBox="0 0 1024 1024" version="1.1" xmlns="http://www.w3.org/2000/svg"><path fill="#666666" d="M512 1004.307692C783.911385 1004.307692 1004.307692 783.911385 1004.307692 512S783.911385 19.692308 512 19.692308 19.692308 240.088615 19.692308 512 240.088615 1004.307692 512 1004.307692z m0-39.384615C261.868308 964.923077 59.076923 762.131692 59.076923 512S261.868308 59.076923 512 59.076923 964.923077 261.868308 964.923077 512 762.131692 964.923077 512 964.923077z"  /><path fill="#666666" d="M295.384615 374.153846m-59.076923 0a59.076923 59.076923 0 1 0 118.153846 0 59.076923 59.076923 0 1 0-118.153846 0Z"  /><path fill="#666666" d="M512 846.769231a295.384615 295.384615 0 0 0 295.384615-295.384616V531.692308H216.615385v19.692307a295.384615 295.384615 0 0 0 295.384615 295.384616z m-255.251692-275.692308H767.212308A256 256 0 0 1 256.787692 571.076923z"  /><path fill="#666666" d="M728.615385 374.153846m-59.076923 0a59.076923 59.076923 0 1 0 118.153846 0 59.076923 59.076923 0 1 0-118.153846 0Z"  /></svg>