<?xml version="1.0" standalone="no"?><!DOCTYPE svg PUBLIC "-//W3C//DTD SVG 1.1//EN" "http://www.w3.org/Graphics/SVG/1.1/DTD/svg11.dtd"><svg class="icon" width="200px" height="200.00px" viewBox="0 0 1024 1024" version="1.1" xmlns="http://www.w3.org/2000/svg"><path d="M802.42709 96.163153H219.476155c-84.48109 0-154.896836 71.746044-154.896836 157.840888v393.119449c0 86.072331 70.415746 157.819398 154.896836 157.819399h214.038818V925.470963s22.526039 40.168862 64.767096 5.734608c30.965246-25.819039 126.721123-91.828428 171.775248-123.385145h132.369773c84.502579 0 154.896836-83.21526 154.896836-157.839865V251.125481c0-86.094844-70.394257-154.962328-154.896836-154.962328zM301.144176 518.002714c-39.427988 0-70.416769-31.576159-70.416769-71.746044 0-40.168862 30.988782-71.746044 70.416769-71.746044 39.426965 0 70.393233 31.577183 70.393234 71.746044 0 40.169885-30.966269 71.746044-70.393234 71.746044z m208.411657 0c-39.450501 0-70.415746-31.576159-70.415746-71.746044 0-40.168862 30.965246-71.746044 70.415746-71.746044 39.405475 0 70.394257 31.577183 70.394257 71.746044 0 40.169885-30.988782 71.746044-70.394257 71.746044z m211.203236 0c-39.426965 0-70.416769-31.576159-70.416769-71.746044 0-40.168862 30.988782-71.746044 70.416769-71.746044s70.415746 31.577183 70.415746 71.746044c-0.001023 40.169885-30.988782 71.746044-70.415746 71.746044z" /></svg>