<?xml version="1.0" standalone="no"?><!DOCTYPE svg PUBLIC "-//W3C//DTD SVG 1.1//EN" "http://www.w3.org/Graphics/SVG/1.1/DTD/svg11.dtd"><svg class="icon" width="200px" height="200.00px" viewBox="0 0 1024 1024" version="1.1" xmlns="http://www.w3.org/2000/svg"><path fill="#666666" d="M744.96 845.824L410.624 511.488l338.944-338.432c11.264-11.264 17.92-27.136 17.92-44.032 0-35.328-28.672-64-64-64-17.408 0-32.768 6.656-44.544 17.92L276.48 465.408c-11.776 11.776-19.456 27.648-19.456 46.08 0 17.92 7.68 34.304 19.456 46.08l382.976 382.976c11.264 10.752 27.136 17.92 44.032 17.92 35.328 0 64-28.672 64-64 0-19.456-8.704-36.864-22.528-48.64z"  /></svg>