<?xml version="1.0" standalone="no"?><!DOCTYPE svg PUBLIC "-//W3C//DTD SVG 1.1//EN" "http://www.w3.org/Graphics/SVG/1.1/DTD/svg11.dtd"><svg class="icon" width="200px" height="200.00px" viewBox="0 0 1024 1024" version="1.1" xmlns="http://www.w3.org/2000/svg"><path fill="#666666" d="M512 1011.2C236.8 1011.2 12.8 787.2 12.8 512S236.8 12.8 512 12.8 1011.2 236.8 1011.2 512 787.2 1011.2 512 1011.2z m0-921.6C279.04 89.6 89.6 279.04 89.6 512S279.04 934.4 512 934.4 934.4 744.96 934.4 512 744.96 89.6 512 89.6z"  /><path fill="#666666" d="M205.056 742.144l244.48-355.072 358.656-92.16-206.592 307.456-396.544 139.776zM496.64 454.4l-94.208 136.96 150.016-52.736 79.872-119.04-135.68 34.816z"  /></svg>