<?xml version="1.0" standalone="no"?><!DOCTYPE svg PUBLIC "-//W3C//DTD SVG 1.1//EN" "http://www.w3.org/Graphics/SVG/1.1/DTD/svg11.dtd"><svg class="icon" width="200px" height="199.80px" viewBox="0 0 1025 1024" version="1.1" xmlns="http://www.w3.org/2000/svg"><path d="M985.4 422.2h-99.8c-21.9 0-39.9 18-39.9 39.9v99.8c0 21.9 18 39.9 39.9 39.9h99.8c21.9 0 39.9-18 39.9-39.9v-99.8c0-21.9-17.9-39.9-39.9-39.9zM626.3 422.2h-99.8c-21.9 0-39.9 18-39.9 39.9v99.8c0 21.9 18 39.9 39.9 39.9h99.8c21.9 0 39.9-18 39.9-39.9v-99.8c0-21.9-18-39.9-39.9-39.9zM267.1 422.2h-99.8c-21.9 0-39.9 18-39.9 39.9v99.8c0 21.9 18 39.9 39.9 39.9h99.8c21.9 0 39.9-18 39.9-39.9v-99.8c0-21.9-18-39.9-39.9-39.9z"  /></svg>