<?xml version="1.0" standalone="no"?><!DOCTYPE svg PUBLIC "-//W3C//DTD SVG 1.1//EN" "http://www.w3.org/Graphics/SVG/1.1/DTD/svg11.dtd"><svg class="icon" width="200px" height="200.00px" viewBox="0 0 1024 1024" version="1.1" xmlns="http://www.w3.org/2000/svg"><path d="M2.27555555 2.27555555v1019.4488889h1019.4488889V2.27555555H2.27555555z m686.87644445 794.1688889H153.71377778c-10.12622222 0-18.09066667-8.64711111-17.408-18.77333334 7.73688889-107.86133333 82.14755555-199.33866667 184.20622222-236.99911111-40.73244445-30.03733333-68.15288889-80.55466667-68.15288889-138.92266667 0-94.66311111 74.29688889-174.30755555 168.04977778-174.30755555 92.04622222 0 170.78044445 79.64444445 170.78044444 174.30755555 0 58.368-28.33066667 108.77155555-76.11733333 138.92266667 108.77155555 37.66044445 183.52355555 129.13777778 191.37422222 236.99911111 0.79644445 10.12622222-7.168 18.77333333-17.29422222 18.77333334z m181.248 0h-110.36444445c-9.10222222 0-16.61155555-7.168-17.18044444-16.15644445-5.80266667-104.78933333-68.38044445-196.83555555-169.41511111-245.64622222 34.47466667-32.768 54.84088889-83.17155555 54.84088889-132.66488889 0-14.336-3.072-30.03733333-5.80266667-43.57688889-1.93422222-9.55733333 4.32355555-18.77333333 13.88088889-20.36622222 6.144-1.024 12.62933333-1.47911111 19.34222222-1.47911111 79.64444445 0 138.92266667 61.89511111 138.92266667 140.62933333 0 38.00177778-22.98311111 86.69866667-57.45777778 112.41244445 82.48888889 28.89955555 142.79111111 102.4 150.41422223 188.30222222 1.024 9.89866667-7.05422222 18.54577778-17.18044445 18.54577778z"  /></svg>