<?xml version="1.0" standalone="no"?><!DOCTYPE svg PUBLIC "-//W3C//DTD SVG 1.1//EN" "http://www.w3.org/Graphics/SVG/1.1/DTD/svg11.dtd"><svg class="icon" width="200px" height="200.00px" viewBox="0 0 1024 1024" version="1.1" xmlns="http://www.w3.org/2000/svg"><path fill="#666666" d="M785.8176 232.7552H132.7104a80.384 80.384 0 0 0-53.6064 21.4016c-15.104 13.4144-22.1696 32.6656-24.5248 52.224-0.6656 5.5296-0.256 11.3664-0.256 16.896v404.992c0 15.3088 2.56 29.5936 9.3184 43.52 13.4656 27.5456 43.3152 41.728 72.6016 41.728h95.0784l-26.112-26.368v136.3968c0 23.1424 28.3648 34.7648 44.544 18.6368l133.6832-132.9152 3.4816-3.4816-18.432 7.7312h386.4064c25.4976 0 51.4048 2.2528 73.8304-12.9536 22.528-15.2576 35.4816-40.448 35.4816-67.7888V312.9856c0-44.032-34.9696-79.5136-78.3872-80.2304a26.4704 26.4704 0 0 0-26.112 26.368c0 14.592 11.8784 26.1632 26.112 26.4192 1.8432 0 3.584 0.1024 5.4272 0.256-7.3216-0.6144-1.5872-0.1024 0.1024 0.3072s3.3792 0.9728 5.0176 1.536c5.7856 1.9456-5.2736-2.56 0.1024 0.1024 1.536 0.768 3.072 1.6896 4.5056 2.6112 1.3312 0.8192 5.7344 4.608 0.1536 0a52.992 52.992 0 0 1 6.0416 6.0928 34.7136 34.7136 0 0 0-0.9728-1.2288c1.024 1.3824 1.8944 2.9184 2.7648 4.4032 0.768 1.3312 3.072 6.8608 0.3072 0 1.3312 3.2768 2.1504 6.7584 2.816 10.24-1.3824-7.4752-0.1536 0.2048-0.1536 2.56v419.328c0 2.7136 0 5.376-0.256 8.0896 0.6144-7.424 0.1024-1.6384-0.3072 0.1024-0.3584 1.6896-0.9216 3.3792-1.536 5.0688-1.8944 5.8368 2.56-5.376-0.1024 0.1024-0.7168 1.536-1.6384 3.072-2.56 4.5056-0.8192 1.3824-4.5568 5.7856 0 0.2048-1.0752 1.3312-2.304 2.56-3.4816 3.7888-1.024 1.024-5.6832 4.8128 0.0512 0.3584-1.792 1.3824-3.7376 2.56-5.7344 3.7376-1.3312 0.768-6.7584 3.1744 0 0.3072a51.5584 51.5584 0 0 1-10.1376 2.8672c7.2704-1.3824 1.536-0.256-0.2048-0.1536H377.856c-10.3424 0-19.6096-0.512-28.0576 7.8848l-20.48 20.3264-86.3744 85.9136-30.208 30.0032 44.6464 18.688v-136.3968a26.5216 26.5216 0 0 0-26.112-26.4192H132.7616c-1.7408 0-9.984-1.024-2.1504 0.1536-1.7408-0.256-3.4304-0.7168-5.12-1.1776-1.6896-0.4096-8.9088-3.584-1.9456-0.4096a52.0192 52.0192 0 0 1-8.8064-5.3248c5.7856 4.1984 1.2288 0.768 0.1024-0.3584-1.28-1.1776-2.4064-2.4576-3.5328-3.7888 4.608 5.3248 0.9728 1.2288 0-0.2048a52.8896 52.8896 0 0 1-2.56-4.5056c-2.8672-5.376 2.048 5.632-0.1024-0.1024a52.992 52.992 0 0 1-1.8944-6.8096c-1.3824-6.144 0.512 6.144-0.0512-0.1536a53.76 53.76 0 0 1-0.1536-3.6864V312.576v-2.5088c0.0512-1.6384 1.024-7.7312-0.1536-0.2048 0.256-1.792 0.7168-3.4816 1.1776-5.2224 0.4608-1.6896 1.024-3.3792 1.6896-5.0176-2.6624 7.168 0.256 0.0512 1.1776-1.536 0.8192-1.4848 1.8432-2.8672 2.816-4.3008-4.096 5.888-0.7168 1.28 0.3584 0.1024 1.1776-1.28 2.4576-2.4064 3.7376-3.584-5.2736 4.7104-1.1776 1.024 0.2048 0.0512 1.4336-0.9728 2.9184-1.792 4.4544-2.56 5.3248-2.9184-5.5808 1.9968 0.1024-0.1536a51.2 51.2 0 0 1 8.4992-2.2528c-3.9936 0.4608-4.5056 0.512-1.536 0.256 1.792-0.1536 3.584-0.1024 5.4272-0.1024h651.264c14.2848 0 26.1632-12.032 26.1632-26.4192a26.5216 26.5216 0 0 0-26.112-26.368z"  /><path fill="#666666" d="M263.3216 524.4928a39.424 39.424 0 0 0 39.168 39.5776 39.424 39.424 0 0 0 39.2192-39.5776 39.424 39.424 0 0 0-39.2192-39.6288 39.424 39.424 0 0 0-39.168 39.6288zM420.0448 524.4928a39.424 39.424 0 0 0 39.2192 39.5776 39.424 39.424 0 0 0 39.168-39.5776 39.424 39.424 0 0 0-39.168-39.6288 39.424 39.424 0 0 0-39.2192 39.6288zM576.8192 524.4928a39.424 39.424 0 0 0 39.168 39.5776 39.424 39.424 0 0 0 39.2192-39.5776 39.424 39.424 0 0 0-39.2192-39.6288 39.424 39.424 0 0 0-39.168 39.6288zM1008.9984 111.616a79.3088 79.3088 0 0 0-67.3792-37.2736H312.1152c-20.992 0-39.936-0.512-59.8016 9.4208-25.8048 12.8512-41.3184 42.24-41.3184 70.656v50.176h52.224v-51.0464c0-1.5872 0.0512-2.048 0.1536-3.584l0.0512-0.256c0.3072-1.7408 0.8192-3.4816 1.3312-5.1712l0.512-1.4336 0.1536-0.3584a52.8384 52.8384 0 0 1 3.328-5.5296c0.8704-1.024 1.792-1.9968 2.7648-2.9696l2.2016-1.9456a29.2864 29.2864 0 0 1 6.7584-3.584v-0.0512a39.68 39.68 0 0 1 4.1472-1.1264c-1.3312 0.3584 3.9936-0.4096 6.2464-0.4096h651.5712c1.2288 0 2.3552 0.0512 3.584 0.1536h0.3072c1.6896 0.3584 3.3792 0.8704 5.12 1.3824a19.8144 19.8144 0 0 1 4.7104 2.3552 33.3312 33.3312 0 0 1 1.8944 1.2288c-1.28-0.8192 2.56 2.2528 3.5328 3.2256 0.4096 0.4608 1.28 1.536 1.8944 2.1504a105.984 105.984 0 0 1 2.56 4.352 34.1504 34.1504 0 0 1 1.024 2.56c0.6144 1.6896 1.024 3.4304 1.3824 5.12l0.0512 0.256a45.568 45.568 0 0 1 0.1024 3.7376v422.2976l-0.0512 2.4064c-0.1024 0.8704-0.3072 2.4064-0.512 3.1744a49.664 49.664 0 0 1-1.3824 4.7616l-0.2048 0.4608a52.3264 52.3264 0 0 1-3.2768 5.4784 66.0992 66.0992 0 0 1-4.7104 4.7104 61.4912 61.4912 0 0 1-3.7888 2.3552l-2.56 1.28a50.2784 50.2784 0 0 1-4.352 1.2288c-0.3584 0-4.1472 0.512-5.5296 0.512H890.88v52.8384h50.0736c43.7248 0 79.104-34.9696 79.872-79.2064V185.4464c0-25.4464 2.1504-51.0464-11.8784-73.8304z"  /></svg>