<?xml version="1.0" standalone="no"?><!DOCTYPE svg PUBLIC "-//W3C//DTD SVG 1.1//EN" "http://www.w3.org/Graphics/SVG/1.1/DTD/svg11.dtd"><svg class="icon" width="200px" height="200.00px" viewBox="0 0 1024 1024" version="1.1" xmlns="http://www.w3.org/2000/svg"><path d="M480.142222 159.288889c183.478044 0 332.231111 148.753067 332.231111 332.231111 0 83.535644-30.833778 159.880533-81.737955 218.271289l147.911111 147.911111-32.199111 32.199111-147.933867-147.911111A330.9568 330.9568 0 0 1 480.142222 823.751111C296.664178 823.751111 147.911111 674.998044 147.911111 491.52 147.911111 308.041956 296.664178 159.288889 480.142222 159.288889z m0 45.511111C321.786311 204.8 193.422222 333.164089 193.422222 491.52s128.364089 286.72 286.72 286.72 286.72-128.364089 286.72-286.72S638.498133 204.8 480.142222 204.8z"  /></svg>