<?xml version="1.0" standalone="no"?><!DOCTYPE svg PUBLIC "-//W3C//DTD SVG 1.1//EN" "http://www.w3.org/Graphics/SVG/1.1/DTD/svg11.dtd"><svg class="icon" width="200px" height="200.00px" viewBox="0 0 1024 1024" version="1.1" xmlns="http://www.w3.org/2000/svg"><path fill="#666666" d="M581.4 539.8L332.7 683.5c-9.6 5.6-21.5 5.6-31.1 0-9.6-5.6-15.5-15.8-15.5-26.9V369.2c0-11.1 5.9-21.4 15.5-26.9 9.6-5.6 21.5-5.6 31.1 0l248.8 143.6c9.6 5.6 15.6 15.8 15.6 26.9-0.1 11.2-6 21.5-15.7 27zM755.5 172H98.1C44.2 172 0 211.5 0 259.8V766c0 48.3 44.1 87.8 98.1 87.8h657.4c54 0 98.1-39.5 98.1-87.8V259.8c0.1-48.3-44.1-87.8-98.1-87.8zM941.3 737.6l-91.1-34.4c-26.5-10-45.9-34.1-45.9-54.8V401.7c0-20.6 19.4-44.8 45.9-54.8l91.1-34.4c42.9-16.2 82.9-5.8 82.9 25.5v374.1c0 31.4-39.9 41.8-82.9 25.5z" /></svg>