<?xml version="1.0" standalone="no"?><!DOCTYPE svg PUBLIC "-//W3C//DTD SVG 1.1//EN" "http://www.w3.org/Graphics/SVG/1.1/DTD/svg11.dtd"><svg class="icon" width="200px" height="200.00px" viewBox="0 0 1024 1024" version="1.1" xmlns="http://www.w3.org/2000/svg"><path d="M510.45511156 887.39022219c-206.76444469 0-374.38044469-167.64977812-374.38044468-374.44088906S303.69066688 138.52088844 510.45511156 138.52088844c206.7662222 0 374.38222219 167.63733375 374.38222219 374.42844468S717.22133375 887.39022219 510.45511156 887.39022219zM510.45511156 185.32266687c-180.92088844 0-327.58222219 146.68266657-327.58222219 327.62666625S329.53422219 840.57777781 510.45511156 840.57777781s327.58222219-146.68444406 327.58222218-327.62844469S691.376 185.32266687 510.45511156 185.32266687zM650.84799969 536.35555532L533.85600031 536.35555532l0 117.00977812c0 12.91733344-10.47644437 23.39733375-23.39911126 23.39733376-12.92266688 0-23.39733375-10.48000031-23.39733374-23.39733376l0-117.00977812-116.99555531-1e-8c-12.92266688 0-23.39911125-10.47822188-23.39911125-23.40622219 0-12.91911094 10.47822188-23.39733375 23.39911125-23.39733374l116.99555531 0 0-117.01511157c0-12.91733344 10.47644437-23.39200031 23.39733374-23.39200031 12.92444438 0 23.39911125 10.47288845 23.39911126 23.39200031l0 117.01511157 116.99200031 0c12.92444438 0 23.39911125 10.47822188 23.39911126 23.39733374C674.24711095 525.87733344 663.77244406 536.35555532 650.84799969 536.35555532z" /></svg>