<?xml version="1.0" standalone="no"?><!DOCTYPE svg PUBLIC "-//W3C//DTD SVG 1.1//EN" "http://www.w3.org/Graphics/SVG/1.1/DTD/svg11.dtd"><svg class="icon" width="200px" height="200.00px" viewBox="0 0 1024 1024" version="1.1" xmlns="http://www.w3.org/2000/svg"><path d="M636.09619424 649.86593344l-28.51701248-13.24726477 9.05061234-46.34857179 38.69684407-78.85998747 22.48327068-46.12946977 18.25291052-51.97781656-16.85402663-37.92155845v-40.719327l-11.24163533-63.20259841-28.07880703-54.77558435-44.94968787-40.75303545-115.16356074-11.24163535-58.98909102 21.06753256-44.94968788 39.33729731-28.09566125 109.55116947 7.73599811 153.7929879 51.25309292 89.19150632 11.24163607 37.92155847 16.21357263 21.06753257-14.81468873 2.81462274-14.03940387 14.03940389h-25.28103924l-15.455142 1.41573811-25.2810392 9.82589722-23.86530037 11.24163535-23.88215531 22.46641646-25.28103922 15.97761714-71.62961101 41.57888225-30.89342976 33.74176026 5.61239055 72.32062621 382.56953893 18.74167649c-0.69101521-8.1404944-1.24719807-16.34840499-1.24719806-24.69114792a290.9004907 290.9004907 0 0 1 85.39935018-206.22586343M616.64664832 735.18101396c0 11.46073808 9.42140092 20.76416016 20.98326217 20.76416015h224.15854735a20.89899249 20.89899249 0 0 0 20.98326214-20.76416015 20.89899249 20.89899249 0 0 0-20.98326214-20.76416016h-224.15854735a20.89899249 20.89899249 0 0 0-20.98326217 20.76416016M861.7716036 779.03518961H637.62991049a20.89899249 20.89899249 0 0 0-21.00011639 20.76416015c0 11.46073808 9.43825441 20.76416016 21.00011639 20.76416016h224.14169311A20.89899249 20.89899249 0 0 0 882.78857422 799.79934976c0-11.46073808-9.43825441-20.76416016-21.01697062-20.76416015M861.7716036 841.24339967H637.62991049a20.89899249 20.89899249 0 0 0-21.00011639 20.74730666c0 11.46073808 9.43825441 20.78101439 21.00011639 20.78101365h224.14169311A20.89899249 20.89899249 0 0 0 882.78857422 862.00755983c0-11.44388386-9.43825441-20.76416016-21.01697062-20.76416016"  /><path d="M551.47212892 840.83890338H183.11053467l-0.0842704-35.89907552c2.71349813-8.78094767 9.28656859-18.08436974 19.50010859-27.67431073 59.83179279-50.49466226 131.17488488-87.21958534 206.29327962-106.12980262a549.55922894 549.55922894 0 0 1 27.97768312-6.30340576l11.03938683-2.15731527 4.92137609-9.89331339c4.71912757-9.43825441 6.52250778-24.26979738 7.19666875-32.46085447l-0.45505825-9.23600591-5.27531043-5.7303694c-1.01124183-1.09551149-2.32585534-2.61237425-3.64046956-4.12923626l-6.52250851-9.16858975-0.20224778 0.13483163c-12.50568763-15.00008302-39.30358887-57.20256432-49.66881545-102.33764649l-2.42697923-10.38208007-9.62364943-4.55058679c-7.07869063-3.32024294-13.33153444-11.62927814-17.62931078-23.3765344-6.48880005-17.69672767-7.88768395-43.76990599 4.43260868-59.27560993l5.34272587-8.59555265-0.91011722-8.56184565c-3.00001632-28.12936971-10.93826294-102.82641318 30.47207926-149.14127724 24.20238122-27.01700397 61.77000533-40.71932699 111.69163125-40.71932699 49.90477096 0 87.47239579 13.70232302 111.65792277 40.71932699 41.4103422 46.31486406 33.47209557 121.01190754 30.50578698 149.17498568l-0.57303636 9.87645918 5.08991542 7.3483553c12.25287718 15.40458007 10.85399255 41.47775838 4.348339 59.1744853-4.29777633 11.74725626-10.55062013 20.05629073-17.62931149 23.37653441l-9.62364871 4.56744101-2.44383418 10.3989343c-10.48320398 45.69126502-37.8372888 88.39936723-50.12387369 102.87697512l-0.23595624-0.03370772-5.94947068 8.37645064c-1.3988839 1.65169435-2.73035237 3.16855711-3.74159419 4.28092283l-5.79778485 7.07869062 0.06741617 8.0225163c0.65730676 8.03937052 2.4775419 22.87091348 7.19666875 32.30916863l4.93822959 9.89331339 11.02253332 2.15731527c4.19665243 0.82584754 12.69108191 2.57866579 23.49451252 5.22474776a288.87800704 288.87800704 0 0 1 33.26984779-33.77546797l-9.03375811-2.39327224c-8.24161902-3.11799516-16.17986493-5.98317912-23.5619287-8.39330487 2.08989909-3.28653522 3.69103151-6.06744953 4.3651925-8.02251628l1.9550675 0.9943876-0.38764281-2.34270956 1.90450481-2.76406009c12.11804483-15.38772583 38.46088782-57.28683472 50.59578616-104.5286702 12.99445433-8.20791058 23.96642497-23.15743165 30.91028399-42.1013574 9.15173624-24.92710487 12.94389237-64.78687659-6.15171917-93.82636277 11.32590575-94.5173787-16.44952961-148.06261923-41.73056883-176.34367549C627.01187418 159.83512488 578.43857096 141.21142578 515.52249146 141.21142578c-62.9160795 0-111.47252849 18.6405526-144.32102577 55.36547568-25.31474694 28.29790975-53.09018228 81.86000451-41.44404991 175.04591547-19.38212976 30.33724691-15.58997435 70.19701865-6.45509234 95.12412279 6.94385902 18.94392501 17.91582968 33.89344682 30.05072873 40.92157551 13.01130782 48.42161666 39.35415082 90.32072555 52.2137728 106.8039636l0.70786944 0.67416098-0.82584755 2.57866578h2.39327151c1.11236573 1.8707971 2.96630859 4.90452186 5.05620842 7.68543617-7.46633342 2.44383346-15.455142 5.30901816-23.61249062 8.4101591-86.88250448 22.78664308-155.56266112 59.71381468-222.69224729 119.76470947-5.84834679 5.24160198-23.03945354 25.39901734-25.3821631 48.92723757v43.5845117c0 19.55067054 16.38211343 35.46087078 36.52267456 35.46087078h374.26050374a289.09710977 289.09710977 0 0 1-1.29776002-25.46643351c0-5.15733232 0.50562092-10.16297807 0.77528486-15.25289349"  /></svg>