<?xml version="1.0" standalone="no"?><!DOCTYPE svg PUBLIC "-//W3C//DTD SVG 1.1//EN" "http://www.w3.org/Graphics/SVG/1.1/DTD/svg11.dtd"><svg class="icon" width="200px" height="199.80px" viewBox="0 0 1025 1024" version="1.1" xmlns="http://www.w3.org/2000/svg"><path d="M912.046 313.26c-22.103-46.547-53.683-88.294-93.863-124.084-39.967-35.599-86.455-63.53-138.175-83.014-53.383-20.112-110.052-30.31-168.432-30.31-58.379 0-115.048 10.198-168.433 30.31-51.719 19.485-98.208 47.415-138.174 83.014-40.18 35.79-71.76 77.537-93.863 124.083-22.997 48.43-34.657 99.895-34.657 152.967 0 89.66 34.325 176.388 96.95 245.72L137.54 864.587c-0.02 0.087-0.041 0.175-0.06 0.263-3.308 14.78 1.38 30.314 12.236 40.538 7.613 7.172 17.32 10.982 27.303 10.98 3.663 0 7.364-0.512 11.01-1.561a25.486 25.486 0 0 0 3.22-1.164l157.273-69.067c12.937-5.682 18.82-20.775 13.138-33.711-5.682-12.937-20.774-18.819-33.711-13.138l-136.192 59.809 34.585-147.217a25.584 25.584 0 0 0-6.533-23.655c-59.45-61.346-92.191-139.632-92.191-220.439 0-187.04 172.244-339.206 383.96-339.206 211.715 0 383.958 152.168 383.958 339.206S723.292 805.433 511.577 805.433c-27.796 0-55.528-2.637-82.424-7.84-13.873-2.68-27.294 6.39-29.976 20.261-2.683 13.873 6.389 27.294 20.262 29.976 30.09 5.82 61.09 8.77 92.14 8.77 58.379 0 115.048-10.198 168.431-30.31 51.72-19.485 98.209-47.415 138.175-83.015 40.18-35.79 71.76-77.536 93.863-124.083 22.997-48.429 34.657-99.894 34.657-152.967-0.002-53.07-11.662-104.536-34.659-152.966z m-569.533 90.533c-30.163 0-54.615 24.453-54.615 54.615 0 30.163 24.453 54.614 54.615 54.614s54.614-24.452 54.614-54.614c0.001-30.162-24.45-54.615-54.614-54.615z m224.104 54.615c0-30.162-24.452-54.615-54.614-54.615-30.163 0-54.614 24.453-54.614 54.615 0 30.163 24.452 54.614 54.614 54.614 30.162 0.001 54.614-24.45 54.614-54.614z m169.49 0c0-30.162-24.451-54.615-54.614-54.615-30.162 0-54.614 24.453-54.614 54.615 0 30.163 24.452 54.614 54.614 54.614 30.163 0.001 54.615-24.45 54.615-54.614z"  /></svg>