<?xml version="1.0" standalone="no"?><!DOCTYPE svg PUBLIC "-//W3C//DTD SVG 1.1//EN" "http://www.w3.org/Graphics/SVG/1.1/DTD/svg11.dtd"><svg class="icon" width="200px" height="175.04px" viewBox="0 0 1170 1024" version="1.1" xmlns="http://www.w3.org/2000/svg"><path fill="#666666" d="M1108.845714 211.017143c34.011429 0 62.317714 29.037714 60.416 63.926857v646.582857c0 1.974857-5.632 98.742857-62.317714 98.742857H62.317714C5.632 1020.342857 0 923.574857 0 921.6V58.148571C0 1.901714 45.348571 0 50.980571 0h317.44c22.601143 0 41.472 7.753143 56.612572 25.161143 0 1.974857 1.901714 3.876571 3.730286 5.851428l107.739428 180.004572h572.342857z m-18.870857 733.769143a59.830857 59.830857 0 0 0 5.632-21.284572V288.475429H515.730286a39.204571 39.204571 0 0 1-32.182857-17.408l-117.028572-191.634286H75.483429v844.068571c1.901714 3.876571 3.803429 13.531429 5.632 21.284572h1008.786285z m29.769143-867.328H622.884571A38.4 38.4 0 0 1 585.142857 38.692571C585.142857 17.554286 602.112 0 622.884571 0h498.761143c20.772571 0 37.741714 17.408 37.741715 38.765714 0 21.211429-18.870857 38.692571-39.643429 38.692572z" /></svg>