<?xml version="1.0" standalone="no"?><!DOCTYPE svg PUBLIC "-//W3C//DTD SVG 1.1//EN" "http://www.w3.org/Graphics/SVG/1.1/DTD/svg11.dtd"><svg class="icon" width="200px" height="200.00px" viewBox="0 0 1024 1024" version="1.1" xmlns="http://www.w3.org/2000/svg"><path fill="#666666" d="M785.066667 238.933333H418.065067a102.4 102.4 0 0 0-75.776 33.518934L145.408 489.028267a34.133333 34.133333 0 0 0 0 45.943466l196.9152 216.576a102.4 102.4 0 0 0 75.776 33.518934H785.066667a102.4 102.4 0 0 0 102.4-102.4V341.333333a102.4 102.4 0 0 0-102.4-102.4zM418.065067 307.2H785.066667a34.133333 34.133333 0 0 1 34.133333 34.133333v341.333334a34.133333 34.133333 0 0 1-34.133333 34.133333H418.065067l-4.096-0.238933a34.133333 34.133333 0 0 1-21.162667-10.922667L216.746667 512l176.059733-193.6384a34.133333 34.133333 0 0 1 25.258667-11.1616z m268.151466 82.261333a34.133333 34.133333 0 0 1 50.926934 45.294934l-2.6624 2.9696-80.247467 80.247466 80.213333 80.247467a34.133333 34.133333 0 0 1-45.2608 50.926933l-2.9696-2.6624-80.247466-80.213333-80.2816 80.213333a34.133333 34.133333 0 0 1-50.926934-45.294933l2.6624-2.9696 80.247467-80.247467-80.213333-80.247466a34.133333 34.133333 0 0 1 45.2608-50.926934l2.9696 2.6624 80.2816 80.213334 80.213333-80.213334z"  /></svg>