<?xml version="1.0" standalone="no"?><!DOCTYPE svg PUBLIC "-//W3C//DTD SVG 1.1//EN" "http://www.w3.org/Graphics/SVG/1.1/DTD/svg11.dtd"><svg class="icon" width="200px" height="200.00px" viewBox="0 0 1024 1024" version="1.1" xmlns="http://www.w3.org/2000/svg"><path d="M969.387 962.56c0 22.756-18.205 40.96-40.96 40.96H111.502c-22.755 0-40.96-18.204-40.96-40.96 0 0 6.827-141.084 118.33-195.698 70.541-34.133 43.235-18.204 129.706-52.338 86.47-34.133 106.95-59.164 106.95-59.164l-4.55-45.511s-95.574-27.307-111.502-131.982c-29.583 6.826-38.685-31.858-40.96-56.89-2.276-25.03-18.205-102.4 18.204-95.573-6.827-52.337-13.653-97.848-9.102-122.88 4.55-40.96-6.827-47.786 31.858-79.644 9.102-9.102-9.103-47.787-2.276-59.164 11.378-22.756 88.747-13.654 100.124-18.205 31.858-13.653 68.267-22.755 106.952-25.031 163.84 6.827 227.555 95.573 236.657 182.044 2.276 25.032-2.275 70.543-11.377 122.88 36.408-6.826 20.48 70.543 18.204 95.574-2.276 25.03-11.378 65.99-40.96 56.889-15.929 104.675-93.298 131.982-93.298 131.982l-4.55 43.235s20.48 22.756 106.95 59.165c86.471 34.133 59.165 20.48 129.707 54.613C962.56 819.2 969.387 962.56 969.387 962.56z m0 0"  /></svg>