<?xml version="1.0" standalone="no"?><!DOCTYPE svg PUBLIC "-//W3C//DTD SVG 1.1//EN" "http://www.w3.org/Graphics/SVG/1.1/DTD/svg11.dtd"><svg class="icon" width="200px" height="200.00px" viewBox="0 0 1024 1024" version="1.1" xmlns="http://www.w3.org/2000/svg"><path fill="#666666" d="M291.2 171.712c-65.877 0-119.467 53.61-119.467 119.488s53.59 119.488 119.467 119.488 119.488-53.61 119.488-119.488c0-65.899-53.61-119.488-119.488-119.488z"  /><path fill="#666666" d="M855.467 0H168.533C75.605 0 0 75.605 0 168.555v686.912C0 948.352 75.605 1024 168.533 1024H855.51C948.352 1024 1024 948.352 1024 855.467V168.555C1024 75.605 948.395 0 855.467 0z m125.802 632.192L698.837 349.739c-8-8-22.165-8-30.165 0L389.333 629.035l-95.317-95.296c-8-8.043-22.187-8.043-30.187 0L42.688 754.9V168.555c0-69.398 56.448-125.867 125.845-125.867h686.934c69.376 0 125.802 56.47 125.802 125.867v463.637z"  /></svg>