<?xml version="1.0" standalone="no"?><!DOCTYPE svg PUBLIC "-//W3C//DTD SVG 1.1//EN" "http://www.w3.org/Graphics/SVG/1.1/DTD/svg11.dtd"><svg class="icon" width="200px" height="200.00px" viewBox="0 0 1024 1024" version="1.1" xmlns="http://www.w3.org/2000/svg"><path fill="#666666" d="M418.5 570.2c0 52.4 42.5 94.8 94.8 94.8s94.8-42.5 94.8-94.8c0-52.4-42.5-94.8-94.8-94.8s-94.8 42.5-94.8 94.8z m0 0"  /><path fill="#666666" d="M892.6 254.1H769.5c-24.7 0-47.1-14.4-57.4-36.8l-24.3-52.8c-10.3-22.4-32.7-36.8-57.4-36.8H405.1c-24.7 0-47.1 14.4-57.4 36.8l-24.3 52.8c-10.3 22.4-32.7 36.8-57.4 36.8H134c-34.8 0-63.2 28.4-63.2 63.2v505.8c0 34.8 28.4 63.2 63.2 63.2h758.6c34.8 0 63.2-28.4 63.2-63.2V317.4c0.1-34.8-28.4-63.3-63.2-63.3zM292 412.2h-94.8c-17.5 0-31.6-14.2-31.6-31.6 0-17.5 14.1-31.6 31.6-31.6H292c17.5 0 31.6 14.1 31.6 31.6 0.1 17.4-14.1 31.6-31.6 31.6z m221.3 316.1c-87.2 0-158-70.9-158-158.1s70.9-158 158-158 158.1 70.9 158.1 158-70.9 158.1-158.1 158.1z m0 0"  /></svg>