<?xml version="1.0" standalone="no"?><!DOCTYPE svg PUBLIC "-//W3C//DTD SVG 1.1//EN" "http://www.w3.org/Graphics/SVG/1.1/DTD/svg11.dtd"><svg class="icon" width="200px" height="200.00px" viewBox="0 0 1024 1024" version="1.1" xmlns="http://www.w3.org/2000/svg"><path fill="#666666" d="M591.4 5.11v78.65h294.95L568.99 385.72a350.05 350.05 0 0 0-215.04-74.88C158.8 310.84 0 469.72 0 665.02c0.26 195.36 158.59 353.65 353.94 353.87 195.14 0 353.94-158.8 353.94-353.87a350.943 350.943 0 0 0-82.43-224.48l319.89-304.39v296.21H1024V5.11H591.4z m37.83 659.91c-0.22 151.94-123.35 275.04-275.29 275.21-151.8 0-275.29-123.41-275.29-275.21 0.09-152.04 123.25-275.31 275.29-275.52 151.81 0 275.29 123.56 275.29 275.52z" /></svg>