<?xml version="1.0" standalone="no"?><!DOCTYPE svg PUBLIC "-//W3C//DTD SVG 1.1//EN" "http://www.w3.org/Graphics/SVG/1.1/DTD/svg11.dtd"><svg class="icon" width="200px" height="177.93px" viewBox="0 0 1151 1024" version="1.1" xmlns="http://www.w3.org/2000/svg"><path fill="#666666" d="M278.229713 0.736134C128.033398 0.773565 6.309253 122.57257 6.334207 272.768886c0.024954 150.196315 121.811483 271.945414 272.007798 271.932937 150.196315-0.012477 271.957891-121.774052 271.95789-271.982845 0-150.208792-121.774052-271.982844-271.982844-271.982844h-0.087338z m0 479.72239c-114.724632 0-207.739546-93.014914-207.739546-207.739546s93.014914-207.739546 207.739546-207.739545c114.737109 0 207.739546 93.014914 207.739546 207.739545 0.012477 114.724632-93.002437 207.739546-207.739546 207.739546z m0 0"  /><path fill="#666666" d="M245.103677 520.334536h66.326933v485.736231H245.103677zM811.764755 66.389317h66.326933v429.415732h-66.326933z"  /><path fill="#666666" d="M844.890791 478.786626c-150.196315 0.049907-271.92046 121.836436-271.895506 272.032752 0.024954 150.208792 121.811483 271.945414 272.007798 271.92046 150.208792-0.012477 271.957891-121.774052 271.95789-271.982844 0-72.141144-28.646847-141.312799-79.664684-192.31816a271.992826 271.992826 0 0 0-192.31816-79.664684h-0.087338z m0 489.741301c-120.264353 0-217.745979-97.494103-217.745979-217.758456S724.626438 533.011015 844.890791 533.011015c120.264353 0 217.758456 97.494103 217.758456 217.758456s-97.494103 217.758456-217.758456 217.758456z m0 0M838.402829 15.88303l46.900478 46.900477-213.853202 213.853202-46.900478-46.900477 213.853202-213.853202z m0 0"  /><path fill="#666666" d="M797.927929 54.960522l46.900478-46.900477 213.853202 213.853202-46.900478 46.900478-213.853202-213.853203z m0 0M16.178441 700.0386h509.255093v63.157813h-509.255093z"  /></svg>