<?xml version="1.0" standalone="no"?><!DOCTYPE svg PUBLIC "-//W3C//DTD SVG 1.1//EN" "http://www.w3.org/Graphics/SVG/1.1/DTD/svg11.dtd"><svg class="icon" width="200px" height="200.00px" viewBox="0 0 1024 1024" version="1.1" xmlns="http://www.w3.org/2000/svg"><path fill="#666666" d="M397.084 667.108l-72.334 72.448 93.753 93.696a28.444 28.444 0 0 1-40.22 40.22l-93.839-93.724-122.14 122.14a28.444 28.444 0 1 1-40.22-40.22l122.14-122.14-93.696-93.64a28.444 28.444 0 0 1 40.22-40.22l93.696 93.639 72.42-72.42a311.609 311.609 0 0 1-72.42-200.22c0-172.8 140.09-312.89 312.89-312.89s312.888 140.09 312.888 312.89-140.089 312.889-312.889 312.889c-76.145 0-145.977-27.222-200.249-72.448z m200.25 15.559a256 256 0 1 0 0-512 256 256 0 0 0 0 512z" /></svg>