<?xml version="1.0" standalone="no"?><!DOCTYPE svg PUBLIC "-//W3C//DTD SVG 1.1//EN" "http://www.w3.org/Graphics/SVG/1.1/DTD/svg11.dtd"><svg class="icon" width="200px" height="200.00px" viewBox="0 0 1024 1024" version="1.1" xmlns="http://www.w3.org/2000/svg"><path fill="#666666" d="M512 1024C229.239467 1024 0 794.760533 0 512 0 229.239467 229.239467 0 512 0c282.760533 0 512 229.239467 512 512 0 282.760533-229.239467 512-512 512z m0-962.116267C263.406933 61.883733 61.883733 263.406933 61.883733 512c0 248.593067 201.5232 450.116267 450.116267 450.116267 248.593067 0 450.116267-201.5232 450.116267-450.116267 0-248.593067-201.5232-450.116267-450.116267-450.116267z"  /><path fill="#666666" d="M558.592 217.770667l-2.423467 2.9696a36.795733 36.795733 0 0 0 2.048 50.244266 360.5504 360.5504 0 0 1 107.349334 256.8192c0 98.781867-39.901867 188.142933-104.5504 253.883734a36.932267 36.932267 0 0 0-2.048 49.834666c14.2336 16.827733 40.106667 17.749333 55.466666 2.2528a435.2 435.2 0 0 0 127.965867-308.565333c0-120.558933-49.083733-229.6832-128.7168-309.248a37.546667 37.546667 0 0 0-55.0912 1.8432z m-66.696533 128.7168a36.795733 36.795733 0 0 0-54.715734-4.437334l-0.750933 0.750934a35.908267 35.908267 0 0 0-4.096 47.274666 234.0864 234.0864 0 0 1 6.3488 271.428267 35.7376 35.7376 0 0 0 6.7584 47.274667 36.9664 36.9664 0 0 0 53.930667-7.202134 305.288533 305.288533 0 0 0 53.248-172.270933 303.991467 303.991467 0 0 0-60.757334-182.818133zM377.9584 481.28a54.852267 54.852267 0 0 0-42.9056-21.230933c-16.4864 0-32.9728 8.123733-42.9056 21.230933-9.898667 13.1072-13.1072 31.0272-8.430933 46.523733-4.676267 15.701333-1.501867 33.450667 8.430933 46.523734 9.9328 13.1072 26.4192 21.230933 42.9056 21.230933 16.4864 0 32.9728-8.123733 42.9056-21.230933 9.9328-13.1072 13.1072-30.993067 8.430933-46.523734a53.111467 53.111467 0 0 0-8.430933-46.523733z"  /></svg>