<?xml version="1.0" standalone="no"?><!DOCTYPE svg PUBLIC "-//W3C//DTD SVG 1.1//EN" "http://www.w3.org/Graphics/SVG/1.1/DTD/svg11.dtd"><svg class="icon" width="200px" height="105.40px" viewBox="0 0 1943 1024" version="1.1" xmlns="http://www.w3.org/2000/svg"><path fill="#666666" d="M199.68 258.986667c9.813333 0 17.493333 7.68 17.493333 17.493333v278.613333c0 9.813333-7.68 17.493333-17.493333 17.493334s-17.493333-7.68-17.493333-17.493334V276.48c0-9.386667 8.106667-17.493333 17.493333-17.493333zM563.2 302.506667c9.813333 0 17.493333 7.68 17.493333 17.493333v191.573333c0 9.813333-7.68 17.493333-17.493333 17.493334s-17.493333-7.68-17.493333-17.493334V320c0-9.386667 7.68-17.493333 17.493333-17.493333zM290.56 328.96c9.813333 0 17.493333 7.68 17.493333 17.493333v139.52c0 9.813333-7.68 17.493333-17.493333 17.493334s-17.493333-7.68-17.493333-17.493334V346.026667c0-9.386667 8.106667-17.066667 17.493333-17.066667zM108.8 337.493333c9.813333 0 17.493333 7.68 17.493333 17.493334v122.026666c0 9.813333-7.68 17.493333-17.493333 17.493334s-17.493333-7.68-17.493333-17.493334V354.986667c0-9.813333 8.106667-17.493333 17.493333-17.493334zM654.08 346.026667c9.813333 0 17.493333 7.68 17.493333 17.493333v104.533333c0 9.813333-7.68 17.493333-17.493333 17.493334s-17.493333-7.68-17.493333-17.493334V363.52c0-9.386667 7.68-17.493333 17.493333-17.493333zM744.96 363.52c9.813333 0 17.493333 7.68 17.493333 17.493333v69.546667c0 9.813333-7.68 17.493333-17.493333 17.493333s-17.493333-7.68-17.493333-17.493333V381.013333c0-9.813333 7.68-17.493333 17.493333-17.493333zM472.32 354.986667c9.813333 0 17.493333 7.68 17.493333 17.493333v87.04c0 9.813333-7.68 17.493333-17.493333 17.493333s-17.493333-7.68-17.493333-17.493333V372.48c0-9.813333 7.68-17.493333 17.493333-17.493333zM17.92 381.013333c9.813333 0 17.493333 7.68 17.493333 17.493334v34.986666c0 9.813333-7.68 17.493333-17.493333 17.493334s-17.493333-7.68-17.493333-17.493334v-34.986666c0.426667-9.813333 8.106667-17.493333 17.493333-17.493334zM381.44 381.013333c9.813333 0 17.493333 7.68 17.493333 17.493334v34.986666c0 9.813333-7.68 17.493333-17.493333 17.493334s-17.493333-7.68-17.493333-17.493334v-34.986666c0-9.813333 8.106667-17.493333 17.493333-17.493334zM835.84 389.546667c9.813333 0 17.493333 7.68 17.493333 17.493333v17.493333c0 9.813333-7.68 17.493333-17.493333 17.493334s-17.493333-7.68-17.493333-17.493334v-17.493333c0-9.386667 7.68-17.493333 17.493333-17.493333zM1017.173333 337.493333c9.813333 0 17.493333 7.68 17.493334 17.493334v122.026666c0 9.813333-7.68 17.493333-17.493334 17.493334s-17.493333-7.68-17.493333-17.493334V354.986667c0.426667-9.813333 8.106667-17.493333 17.493333-17.493334zM926.72 381.013333c9.813333 0 17.493333 7.68 17.493333 17.493334v34.986666c0 9.813333-7.68 17.493333-17.493333 17.493334s-17.493333-7.68-17.493333-17.493334v-34.986666c0-9.813333 7.68-17.493333 17.493333-17.493334zM1289.813333 258.986667c9.813333 0 17.493333 7.68 17.493334 17.493333v278.613333c0 9.813333-7.68 17.493333-17.493334 17.493334s-17.493333-7.68-17.493333-17.493334V276.48c0-9.386667 8.106667-17.493333 17.493333-17.493333zM1653.333333 302.506667c9.813333 0 17.493333 7.68 17.493334 17.493333v191.573333c0 9.813333-7.68 17.493333-17.493334 17.493334s-17.493333-7.68-17.493333-17.493334V320c0-9.386667 7.68-17.493333 17.493333-17.493333zM1380.693333 328.96c9.813333 0 17.493333 7.68 17.493334 17.493333v139.52c0 9.813333-7.68 17.493333-17.493334 17.493334s-17.493333-7.68-17.493333-17.493334V346.026667c0-9.386667 8.106667-17.066667 17.493333-17.066667zM1198.933333 337.493333c9.813333 0 17.493333 7.68 17.493334 17.493334v122.026666c0 9.813333-7.68 17.493333-17.493334 17.493334s-17.493333-7.68-17.493333-17.493334V354.986667c0-9.813333 8.106667-17.493333 17.493333-17.493334zM1744.213333 346.026667c9.813333 0 17.493333 7.68 17.493334 17.493333v104.533333c0 9.813333-7.68 17.493333-17.493334 17.493334s-17.493333-7.68-17.493333-17.493334V363.52c0-9.386667 7.68-17.493333 17.493333-17.493333zM1835.093333 363.52c9.813333 0 17.493333 7.68 17.493334 17.493333v69.546667c0 9.813333-7.68 17.493333-17.493334 17.493333s-17.493333-7.68-17.493333-17.493333V381.013333c0-9.813333 7.68-17.493333 17.493333-17.493333zM1562.453333 354.986667c9.813333 0 17.493333 7.68 17.493334 17.493333v87.04c0 9.813333-7.68 17.493333-17.493334 17.493333s-17.493333-7.68-17.493333-17.493333V372.48c0-9.813333 7.68-17.493333 17.493333-17.493333zM1108.053333 381.013333c9.813333 0 17.493333 7.68 17.493334 17.493334v34.986666c0 9.813333-7.68 17.493333-17.493334 17.493334s-17.493333-7.68-17.493333-17.493334v-34.986666c0.426667-9.813333 8.106667-17.493333 17.493333-17.493334zM1471.573333 381.013333c9.813333 0 17.493333 7.68 17.493334 17.493334v34.986666c0 9.813333-7.68 17.493333-17.493334 17.493334s-17.493333-7.68-17.493333-17.493334v-34.986666c0-9.813333 8.106667-17.493333 17.493333-17.493334zM1925.973333 389.546667c9.813333 0 17.493333 7.68 17.493334 17.493333v17.493333c0 9.813333-7.68 17.493333-17.493334 17.493334s-17.493333-7.68-17.493333-17.493334v-17.493333c0-9.386667 7.68-17.493333 17.493333-17.493333z" /></svg>