<?xml version="1.0" standalone="no"?><!DOCTYPE svg PUBLIC "-//W3C//DTD SVG 1.1//EN" "http://www.w3.org/Graphics/SVG/1.1/DTD/svg11.dtd"><svg class="icon" width="200px" height="78.44px" viewBox="0 0 2611 1024" version="1.1" xmlns="http://www.w3.org/2000/svg"><path fill="#666666" d="M384 256a76.8 76.8 0 0 1 76.8 76.8v358.4a76.8 76.8 0 1 1-153.6 0V332.8A76.8 76.8 0 0 1 384 256zM76.8 102.4a76.8 76.8 0 0 1 76.8 76.8v691.2a76.8 76.8 0 1 1-153.6 0V179.2a76.8 76.8 0 0 1 76.8-76.8z m1228.8 204.8a76.8 76.8 0 0 1 76.8 76.8v256a76.8 76.8 0 1 1-153.6 0V384a76.8 76.8 0 0 1 76.8-76.8zM998.4 204.8a76.8 76.8 0 0 1 76.8 76.8v460.8a76.8 76.8 0 1 1-153.6 0V281.6a76.8 76.8 0 0 1 76.8-76.8z m614.4-51.2a76.8 76.8 0 0 1 76.8 76.8v588.8a76.8 76.8 0 1 1-153.6 0V230.4a76.8 76.8 0 0 1 76.8-76.8z m614.4-51.2a76.8 76.8 0 0 1 76.8 76.8v691.2a76.8 76.8 0 1 1-153.6 0V179.2a76.8 76.8 0 0 1 76.8-76.8zM2534.4 256a76.8 76.8 0 0 1 76.8 76.8v384a76.8 76.8 0 1 1-153.6 0v-384a76.8 76.8 0 0 1 76.8-76.8zM1920 0a76.8 76.8 0 0 1 76.8 76.8v870.4a76.8 76.8 0 1 1-153.6 0V76.8A76.8 76.8 0 0 1 1920 0zM691.2 0A76.8 76.8 0 0 1 768 76.8v870.4a76.8 76.8 0 1 1-153.6 0V76.8A76.8 76.8 0 0 1 691.2 0z" /></svg>