<?xml version="1.0" standalone="no"?><!DOCTYPE svg PUBLIC "-//W3C//DTD SVG 1.1//EN" "http://www.w3.org/Graphics/SVG/1.1/DTD/svg11.dtd"><svg class="icon" width="200px" height="200.00px" viewBox="0 0 1024 1024" version="1.1" xmlns="http://www.w3.org/2000/svg"><path fill="#666666" d="M513.86 310.15q28.65 0 28.65 28.87v346.33q0 28.86-28.65 28.86t-28.65-28.86V339q0-28.85 28.65-28.85zM628.46 401.36q28.65 0 28.65 28.86v173.16q0 28.86-28.65 28.86t-28.65-28.86V430.22q0-28.86 28.65-28.86zM743.07 454.46q28.65 0 28.65 28.86V541q0 28.86-28.65 28.86T714.42 541v-57.68q0-28.86 28.65-28.86zM284.65 454.46q28.65 0 28.65 28.86V541q0 28.86-28.65 28.86Q256 569.9 256 541v-57.68q0-28.86 28.65-28.86zM399.25 401.36q28.67 0 28.66 28.86v173.16q0 28.86-28.66 28.86-28.65 0-28.65-28.86V430.22q0-28.86 28.65-28.86zM512 128a382.61 382.61 0 1 1-149.45 30.15A381.46 381.46 0 0 1 512 128m0-64C264.58 64 64 264.58 64 512s200.58 448 448 448 448-200.58 448-448S759.42 64 512 64z" /></svg>