<?xml version="1.0" standalone="no"?><!DOCTYPE svg PUBLIC "-//W3C//DTD SVG 1.1//EN" "http://www.w3.org/Graphics/SVG/1.1/DTD/svg11.dtd"><svg class="icon" width="200px" height="200.00px" viewBox="0 0 1024 1024" version="1.1" xmlns="http://www.w3.org/2000/svg"><path fill="#333333" d="M513.788813 938.289925c-113.566274 0-220.223734-44.167967-300.444149-124.388381-80.220415-80.220415-124.388382-186.877876-124.388382-300.44415s44.167967-220.227983 124.388382-300.448398c165.543834-165.548083 435.348714-165.548083 600.892548 0 165.548083 165.548083 165.548083 435.348714 0 600.892548-80.220415 80.220415-186.877876 124.388382-300.44415 124.388381z m0-785.973112c-92.538158 0-185.072066 35.453344-255.379651 105.756681-68.2001 68.204349-105.75668 158.63927-105.756681 255.3839s37.556581 187.175303 105.756681 255.379652c68.204349 68.2001 158.936697 106.054108 255.379651 105.75668 96.74888 0 187.179552-37.556581 255.379652-105.75668 140.912598-140.912598 140.912598-369.850954 0-510.759303-70.303336-70.307585-162.841494-105.75668-255.379652-105.756681zM613.550207 737.709145c-16.570954 16.570954-34.841494 16.570954-51.412448 0s-3.824066-43.339419 12.746888-59.910373c87.953527-87.953527 87.953527-230.718672 0-318.672199-16.570954-16.570954-29.317842-43.339419-12.746888-59.910374s34.841494-16.995851 51.412448-0.424896c121.095436 121.095436 121.095436 317.822407 0 438.917842zM488.630705 620.01288c-13.171784 13.171784-30.592531 13.171784-43.764315 0-13.171784-13.171784-4.673859-34.841494 8.497925-48.013278C469.510373 555.853544 478.008299 534.183834 478.008299 511.664332c0-22.519502-8.922822-43.764315-25.06888-59.910373-13.171784-13.171784-21.66971-34.841494-8.497925-48.013279s30.592531-13.171784 43.764315 0C517.523651 432.633627 533.244813 471.299187 533.244813 511.664332c0 40.365145-15.721162 79.030705-44.614108 108.348548zM342.041494 512.514124m-42.489627 0a42.489627 42.489627 0 1 0 84.979253 0 42.489627 42.489627 0 1 0-84.979253 0Z" /></svg>