<?xml version="1.0" standalone="no"?><!DOCTYPE svg PUBLIC "-//W3C//DTD SVG 1.1//EN" "http://www.w3.org/Graphics/SVG/1.1/DTD/svg11.dtd"><svg class="icon" width="200px" height="186.35px" viewBox="0 0 1099 1024" version="1.1" xmlns="http://www.w3.org/2000/svg"><path fill="#666666" d="M260.587261 1021.378708a33.305827 33.305827 0 0 1-24.208402-56.126487l167.762686-179.018822H841.897305a40.707122 40.707122 0 0 0 40.707122-40.707123V245.476284a40.861316 40.861316 0 0 0-40.707122-40.861316H107.935552a40.861316 40.861316 0 0 0-41.323897 40.861316v500.049992A40.707122 40.707122 0 0 0 107.935552 786.233399h158.048487a33.305827 33.305827 0 1 1 0 66.611654H107.935552a107.935552 107.935552 0 0 1-107.935552-107.935551V245.476284a107.935552 107.935552 0 0 1 107.935552-107.935552h733.961753a107.935552 107.935552 0 0 1 107.935551 107.935552v500.049992a107.935552 107.935552 0 0 1-107.935551 107.935552H432.975757l-148.0259 158.048487a33.305827 33.305827 0 0 1-24.362596 10.485168z"  /><path fill="#666666" d="M1062.856799 787.15856a33.305827 33.305827 0 0 1-33.305828-32.843246v-647.613311a40.707122 40.707122 0 0 0-40.707122-40.090348H143.245897a33.305827 33.305827 0 1 1 0-66.611655h845.597952a107.935552 107.935552 0 0 1 107.935552 107.935552v646.379762a33.460021 33.460021 0 0 1-33.460021 33.305827z"  /></svg>